<svg width="61" height="61" viewBox="0 0 61 61" fill="none" xmlns="http://www.w3.org/2000/svg">
<path d="M30.5 61C47.3447 61 61 47.3447 61 30.5C61 13.6553 47.3447 0 30.5 0C13.6553 0 0 13.6553 0 30.5C0 47.3447 13.6553 61 30.5 61Z" fill="#A43136"/>
<path d="M19.9402 47.9999H19.1503C18.3203 47.8399 17.7103 47.3299 17.1403 46.7399C16.1903 45.7599 15.2302 44.7999 14.2502 43.8499C13.6602 43.2799 13.1502 42.6799 12.9902 41.8399V41.0499C13.1502 40.2199 13.6702 39.6199 14.2502 39.0399C16.7702 36.5399 19.2802 34.0199 21.7902 31.4999C21.8802 31.4099 21.9703 31.3199 22.0903 31.1899C21.9703 31.0899 21.8603 31.0099 21.7703 30.9199C19.2603 28.4199 16.7602 25.8999 14.2502 23.4099C13.6702 22.8299 13.1502 22.2399 12.9902 21.3999V20.6099C13.1402 19.9899 13.4202 19.4298 13.8802 18.9698C15.1002 17.7698 16.2903 16.5399 17.5303 15.3499C17.8503 15.0399 18.2502 14.7599 18.6702 14.6199C19.8002 14.2299 20.7802 14.5499 21.6202 15.3999C24.2402 18.0299 26.8602 20.6499 29.4902 23.2699C29.5802 23.3599 29.6702 23.4399 29.8002 23.5699C29.9102 23.4399 29.9903 23.3299 30.0803 23.2399C32.6903 20.6199 35.3102 18.0099 37.9302 15.3899C39.1802 14.1399 40.7902 14.1399 42.0402 15.3899C43.2302 16.5799 44.4302 17.7499 45.6002 18.9599C45.9202 19.2899 46.2202 19.6899 46.3702 20.1199C46.7702 21.2499 46.4602 22.2299 45.6102 23.0699C42.9802 25.6899 40.3602 28.3099 37.7402 30.9399C37.6502 31.0299 37.5602 31.1199 37.4302 31.2699C37.5502 31.3699 37.6602 31.4399 37.7502 31.5299C40.3502 34.1299 42.9502 36.7299 45.5502 39.3299C45.7702 39.5499 45.9903 39.7899 46.1503 40.0599C46.8203 41.1899 46.6303 42.4799 45.6503 43.4599C44.5703 44.5499 43.4703 45.6299 42.3903 46.7299C41.8203 47.3199 41.2102 47.8199 40.3802 47.9899H39.5903C38.7603 47.8299 38.1603 47.3099 37.5803 46.7299C35.0803 44.2099 32.5602 41.6999 30.0402 39.1899C29.9502 39.0999 29.8603 39.0099 29.7103 38.8799C29.6103 39.0099 29.5403 39.1198 29.4503 39.2198C26.9503 41.7298 24.4302 44.2299 21.9402 46.7399C21.3602 47.3199 20.7602 47.8399 19.9302 47.9999H19.9402Z" fill="#F2F2F2"/>
</svg>
