<?xml version="1.0" encoding="UTF-8"?>
<svg id="Capa_2" data-name="Capa 2" xmlns="http://www.w3.org/2000/svg" viewBox="0 0 161.04 156.9">
  <defs>
    <style>
      .cls-1 {
        fill: #dee9ff;
      }

      .cls-2 {
        fill: #ee917b;
      }

      .cls-3 {
        opacity: .15;
      }

      .cls-4 {
        fill: #d64146;
      }
    </style>
  </defs>
  <g id="Capa_1-2" data-name="Capa 1">
    <g id="post_it_a">
      <g>
        <g>
          <g class="cls-3">
            <path d="m152.2,156.9c-45.1-4.1-90.2-8.3-135.3-12.4,6.7-41,9.1-82.3,7.2-123.6,45.4-1.2,90.8-2.4,136.2-3.6,2.2,46.6-.5,93.3-8.1,139.6Z"/>
          </g>
          <path class="cls-2" d="m150.2,151.9c-45.1-4.1-90.2-8.3-135.3-12.4,6.7-41,9.1-82.3,7.2-123.6,45.4-1.2,90.8-2.4,136.2-3.6,2.2,46.6-.5,93.3-8.1,139.6Z"/>
        </g>
        <path class="cls-4" d="m150.2,151.9c-45.1-4.1-90.2-8.3-135.3-12.4C66.7,102.6,115.1,60.2,158.3,12.4c2.2,46.5-.5,93.2-8.1,139.5Z"/>
      </g>
      <polygon class="cls-1" points="0 33.4 41.6 0 41.4 2.4 43.9 1.6 45 3.7 46.8 3.7 47.8 5.7 49.9 5.8 49.9 8.2 52.8 7.8 52.9 9.6 55.8 9.9 14.3 43.3 12.8 41.9 13.5 40.7 10.8 40.9 10.8 38.8 8.1 39 7.7 36.7 5 36.9 5.3 35 2.5 35.2 2.7 33.2 0 33.4"/>
    </g>
  </g>
</svg>