<?xml version="1.0" encoding="UTF-8"?>
<svg id="Capa_2" data-name="Capa 2" xmlns="http://www.w3.org/2000/svg" viewBox="0 0 60.6 54.65">
  <defs>
    <style>
      .cls-1 {
        fill: #253611;
      }
    </style>
  </defs>
  <g id="Capa_1-2" data-name="Capa 1">
    <g>
      <path class="cls-1" d="m20.91,23.8c-1.2-2.7-1.6-5.7-2.5-8.5-1.3-3.7-3.2-7.2-4.8-10.8-1.2-2.5-5.3-1.2-4.2,1.4,1.4,3.1,2.9,6.2,4.2,9.4s1.7,6.7,3.1,9.8c1.1,2.6,5.3,1.3,4.2-1.3Z"/>
      <path class="cls-1" d="m39.11,20.3c-1.1-3-2.3-6-3.4-8.9-1.2-3.1-3.4-6.1-4-9.4-.5-2.8-4.9-2.6-4.4.2s1.7,5.2,3,7.7c1.9,3.7,3.2,7.9,4.7,11.8.9,2.6,5.1,1.2,4.1-1.4Z"/>
      <path class="cls-1" d="m53.01,10.8c-1.4-2.1-4.6,0-3.2,2.1,4.9,7.5,9,16,5.4,24.9-2.6,6.4-11.2,12.4-17.9,12.9-7.3.5-14.9-1.7-21.9-3.6-9.3-2.5-11.2-8.4-11.6-17.3-.1-2.5-4-2.3-3.8.2.4,9.1,1.8,15.8,10.8,19.6,9,3.7,21.1,6.2,30.7,4.5,7.3-1.3,15-9.4,17.8-16,3.7-9.5-1.2-19.5-6.3-27.3Z"/>
    </g>
  </g>
</svg>