<?xml version="1.0" encoding="UTF-8"?>
<svg id="Capa_2" data-name="Capa 2" xmlns="http://www.w3.org/2000/svg" xmlns:xlink="http://www.w3.org/1999/xlink" viewBox="0 0 1919.2 1077.08">
  <defs>
    <style>
      .cls-1 {
        fill: url(#Degradado_sin_nombre_55);
      }

      .cls-2 {
        fill: url(#Degradado_sin_nombre_38);
      }

      .cls-3 {
        fill: url(#Degradado_sin_nombre_48);
      }

      .cls-4 {
        stroke: #000;
        stroke-miterlimit: 10;
        stroke-width: 3px;
      }

      .cls-4, .cls-5 {
        fill: none;
      }

      .cls-6 {
        clip-path: url(#clippath);
      }
    </style>
    <clipPath id="clippath">
      <rect class="cls-5" width="1919.2" height="1077.08"/>
    </clipPath>
    <radialGradient id="Degradado_sin_nombre_55" data-name="Degradado sin nombre 55" cx="959.6" cy="1025.41" fx="959.6" fy="1025.41" r="679.52" gradientUnits="userSpaceOnUse">
      <stop offset="0" stop-color="#78532a"/>
      <stop offset=".42" stop-color="#80582c"/>
      <stop offset=".74" stop-color="#865d2f"/>
      <stop offset="1" stop-color="#865d2e"/>
    </radialGradient>
    <linearGradient id="Degradado_sin_nombre_38" data-name="Degradado sin nombre 38" x1="959.6" y1="764.78" x2="959.6" y2="-144.53" gradientUnits="userSpaceOnUse">
      <stop offset="0" stop-color="#bda47d"/>
      <stop offset=".42" stop-color="#d4b98e"/>
      <stop offset=".74" stop-color="#ebd2a5"/>
      <stop offset=".98" stop-color="#f5dbac"/>
    </linearGradient>
    <radialGradient id="Degradado_sin_nombre_48" data-name="Degradado sin nombre 48" cx="959.96" cy="940.78" fx="959.96" fy="940.78" r="679.1" gradientUnits="userSpaceOnUse">
      <stop offset="0" stop-color="#e5dcd1"/>
      <stop offset=".42" stop-color="#f8eee1"/>
      <stop offset=".74" stop-color="#fdf3e6"/>
      <stop offset="1" stop-color="#e1d7ca"/>
    </radialGradient>
  </defs>
  <g id="Capa_2-2" data-name="Capa 2">
    <g class="cls-6">
      <g>
        <rect class="cls-1" y="973.74" width="1919.2" height="103.33"/>
        <rect class="cls-2" width="1919.2" height="909.31"/>
        <line class="cls-4" x1="1.36" y1="1029.13" x2="76.71" y2="979.8"/>
        <line class="cls-4" x1="152.05" y1="979.8" x2="-3.92" y2="1087.33"/>
        <line class="cls-4" x1="230.49" y1="975.35" x2="76.71" y2="1093.13"/>
        <line class="cls-4" x1="304.05" y1="974.67" x2="158.93" y2="1096.24"/>
        <line class="cls-4" x1="375.72" y1="974.67" x2="237.6" y2="1103.8"/>
        <line class="cls-4" x1="451.38" y1="970.9" x2="322.93" y2="1103.8"/>
        <line class="cls-4" x1="515.6" y1="979.8" x2="398.93" y2="1119.24"/>
        <line class="cls-4" x1="591.27" y1="974.67" x2="492.26" y2="1119.24"/>
        <line class="cls-4" x1="665.85" y1="971.91" x2="579.6" y2="1121.57"/>
        <line class="cls-4" x1="739.93" y1="961.91" x2="670.93" y2="1119.24"/>
        <line class="cls-4" x1="808.93" y1="966.19" x2="757.6" y2="1128.19"/>
        <line class="cls-4" x1="878.93" y1="961.91" x2="848.93" y2="1131.57"/>
        <line class="cls-4" x1="949.26" y1="966.19" x2="941.26" y2="1119.24"/>
        <line class="cls-4" x1="1023.26" y1="970.85" x2="1028.12" y2="1085.24"/>
        <line class="cls-4" x1="1088.26" y1="948.91" x2="1117.26" y2="1098.11"/>
        <line class="cls-4" x1="1160.93" y1="959.35" x2="1205.93" y2="1102.57"/>
        <line class="cls-4" x1="1232.26" y1="963.68" x2="1287.6" y2="1088.57"/>
        <line class="cls-4" x1="1299.93" y1="959.35" x2="1375.93" y2="1090.57"/>
        <line class="cls-4" x1="1370.93" y1="961.68" x2="1453.26" y2="1082.24"/>
        <line class="cls-4" x1="1436.6" y1="957.24" x2="1542.26" y2="1084.57"/>
        <line class="cls-4" x1="1502.93" y1="957.24" x2="1622.93" y2="1080.91"/>
        <line class="cls-4" x1="1579.6" y1="959.35" x2="1708.6" y2="1080.91"/>
        <line class="cls-4" x1="1646.26" y1="957.24" x2="1796.6" y2="1082.74"/>
        <line class="cls-4" x1="1711.66" y1="953.91" x2="1875.26" y2="1080.91"/>
        <line class="cls-4" x1="1775.26" y1="949.57" x2="1923.2" y2="1055.91"/>
        <line class="cls-4" x1="1804.93" y1="917.57" x2="1938.6" y2="1015.57"/>
        <rect class="cls-3" x=".36" y="901.76" width="1919.2" height="78.03"/>
      </g>
    </g>
  </g>
</svg>