<?xml version="1.0" encoding="UTF-8"?>
<svg id="Capa_2" data-name="Capa 2" xmlns="http://www.w3.org/2000/svg" viewBox="0 0 41.4 56">
  <defs>
    <style>
      .cls-1 {
        fill: #dee9ff;
      }

      .cls-2, .cls-3 {
        fill: #ffeead;
      }

      .cls-3 {
        isolation: isolate;
        opacity: .3;
      }

      .cls-4 {
        opacity: .15;
      }
    </style>
  </defs>
  <g id="Capa_1-2" data-name="Capa 1">
    <g id="C">
      <g>
        <g>
          <g>
            <g class="cls-4">
              <path d="m41.4,52.2c-12,1.2-24,2.5-36,3.8-1.6-15.3-2.7-30.6-3.4-46,12-.6,24.1-1.2,36.1-1.7.7,14.7,1.8,29.3,3.3,43.9Z"/>
            </g>
            <path class="cls-2" d="m39.4,47.2c-12,1.2-24,2.5-36,3.8C1.8,35.7.7,20.4,0,5c12-.6,24.1-1.2,36.1-1.7.7,14.7,1.8,29.3,3.3,43.9Z"/>
          </g>
          <path class="cls-3" d="m39.4,47.2c-12,1.2-24,2.5-36,3.8C13.8,34.4,24.8,18.5,36.2,3.3c.6,14.7,1.7,29.3,3.2,43.9Z"/>
        </g>
        <polygon class="cls-1" points="35.4 10 19.4 5.1 20.2 4.7 19.6 4.2 20.2 3.6 19.9 3.2 20.5 2.6 20.3 2.1 21.1 1.7 20.6 1.1 21.2 .7 20.9 0 37 4.9 36.7 5.5 36.2 5.5 36.6 6.1 35.9 6.5 36.3 7.1 35.5 7.6 35.9 8.2 35.3 8.4 35.7 9.1 35 9.3 35.4 10"/>
      </g>
    </g>
  </g>
</svg>