<svg width="1897" height="934" viewBox="0 0 1897 934" fill="none" xmlns="http://www.w3.org/2000/svg">
<path d="M201.933 375.426L197.186 576.651L0 410.485L201.933 375.426Z" fill="#82A333"/>
<path d="M1897.02 473.386C1897.96 217.236 1508.15 8.15303 1026.36 6.38697C544.574 4.62091 153.245 210.84 152.306 466.991C151.367 723.141 541.175 932.224 1022.96 933.99C1504.76 935.756 1896.08 729.537 1897.02 473.386Z" fill="#82A333"/>
<path fill-rule="evenodd" clip-rule="evenodd" d="M1890.06 450.657C1890.06 699.548 1502.43 901.315 1024.27 901.315C590.668 901.315 231.513 735.403 168.338 518.889L12.0508 387.477L175.752 360.643C255.884 154.883 605.328 0 1024.27 0C1502.43 0 1890.06 201.766 1890.06 450.657Z" fill="url(#paint0_linear_681_118)"/>
<g filter="url(#filter0_ii_681_118)">
<path d="M588.846 498.16C557.6 498.16 531.226 491.853 509.726 479.24C488.513 466.34 473.463 448.423 464.576 425.49L526.496 403.13C530.51 416.89 537.963 427.067 548.856 433.66C560.036 440.253 573.51 443.55 589.276 443.55C597.59 443.55 605.616 442.69 613.356 440.97C621.096 438.963 627.546 435.81 632.706 431.51C637.866 426.923 640.446 420.903 640.446 413.45C640.446 403.417 635.573 395.677 625.826 390.23C616.08 384.497 603.466 380.197 587.986 377.33L553.156 370.45C537.676 367.297 523.2 362.567 509.726 356.26C496.54 349.667 485.933 341.067 477.906 330.46C469.88 319.567 465.866 305.95 465.866 289.61C465.866 274.13 469.45 260.8 476.616 249.62C483.783 238.44 493.243 229.267 504.996 222.1C517.036 214.933 530.223 209.63 544.556 206.19C558.89 202.463 573.223 200.6 587.556 200.6C603.036 200.6 617.943 202.75 632.276 207.05C646.896 211.35 659.94 218.087 671.406 227.26C682.873 236.147 691.616 248.043 697.636 262.95L636.146 285.31C632.42 275.563 625.683 268.11 615.936 262.95C606.476 257.79 595.01 255.21 581.536 255.21C568.35 255.21 557.313 257.647 548.426 262.52C539.826 267.107 535.526 273.843 535.526 282.73C535.526 289.897 538.536 296.06 544.556 301.22C550.576 306.38 558.46 309.963 568.206 311.97L606.906 319.71C618.66 322.003 630.556 325.013 642.596 328.74C654.636 332.18 665.673 336.91 675.706 342.93C686.026 348.663 694.34 356.403 700.646 366.15C706.953 375.897 710.106 388.223 710.106 403.13C710.106 418.323 706.523 431.94 699.356 443.98C692.476 455.733 683.16 465.623 671.406 473.65C659.94 481.677 647.04 487.84 632.706 492.14C618.373 496.153 603.753 498.16 588.846 498.16ZM722.207 493L830.997 205.76H905.817L1014.61 493H940.647L923.447 441.83H813.367L796.167 493H722.207ZM831.857 386.79H904.957L867.977 277.57L831.857 386.79ZM1027.07 493L1135.86 205.76H1210.68L1319.47 493H1245.51L1228.31 441.83H1118.23L1101.03 493H1027.07ZM1136.72 386.79H1209.82L1172.84 277.57L1136.72 386.79ZM1464.52 498.16C1434.7 498.16 1409.05 492.14 1387.55 480.1C1366.05 468.06 1349.56 450.86 1338.1 428.5C1326.63 406.14 1320.9 379.767 1320.9 349.38C1320.9 318.993 1326.77 292.763 1338.53 270.69C1350.57 248.33 1367.48 231.13 1389.27 219.09C1411.05 206.763 1436.71 200.6 1466.24 200.6C1493.47 200.6 1517.12 206.62 1537.19 218.66C1557.54 230.7 1573.16 246.897 1584.06 267.25L1523.86 289.18C1517.55 277.427 1508.95 269.113 1498.06 264.24C1487.16 259.08 1475.84 256.5 1464.09 256.5C1450.9 256.5 1438.86 260.227 1427.97 267.68C1417.07 274.847 1408.47 285.453 1402.17 299.5C1395.86 313.26 1392.71 329.887 1392.71 349.38C1392.71 379.48 1399.59 402.557 1413.35 418.61C1427.39 434.377 1444.59 442.26 1464.95 442.26C1475.84 442.26 1487.02 439.967 1498.49 435.38C1510.24 430.793 1519.41 422.337 1526.01 410.01L1585.78 431.94C1574.31 452.293 1557.97 468.49 1536.76 480.53C1515.83 492.283 1491.75 498.16 1464.52 498.16Z" fill="white"/>
</g>
<g filter="url(#filter1_ii_681_118)">
<path d="M911.558 777.84C899.611 777.84 888.091 776.133 876.998 772.72C866.118 769.307 856.518 764.08 848.198 757.04C839.878 749.787 833.478 740.507 828.998 729.2L873.158 713.2C875.931 723.653 881.051 731.013 888.518 735.28C895.984 739.547 904.091 741.68 912.838 741.68C922.864 741.68 930.864 739.227 936.838 734.32C942.811 729.413 945.798 722.587 945.798 713.84C945.798 705.093 943.024 698.373 937.478 693.68C931.931 688.773 924.571 685.467 915.398 683.76C906.438 681.84 896.624 680.88 885.958 680.88V646.96C904.304 646.96 918.384 644.4 928.198 639.28C938.224 634.16 943.238 626.907 943.238 617.52C943.238 609.2 939.824 603.013 932.998 598.96C926.384 594.693 918.704 592.56 909.958 592.56C902.064 592.56 894.811 594.48 888.198 598.32C881.584 602.16 877.211 608.987 875.078 618.8L831.238 602.8C835.504 591.92 841.798 583.067 850.118 576.24C858.438 569.413 868.038 564.4 878.918 561.2C889.798 558 901.104 556.4 912.838 556.4C922.651 556.4 932.251 557.467 941.638 559.6C951.024 561.733 959.451 565.147 966.918 569.84C974.598 574.32 980.678 580.08 985.158 587.12C989.851 593.947 992.198 602.16 992.198 611.76C992.198 623.28 989.104 633.413 982.918 642.16C976.731 650.693 969.904 657.093 962.438 661.36C969.478 663.92 975.451 667.973 980.358 673.52C985.478 679.067 989.318 685.147 991.878 691.76C994.438 698.373 995.718 704.987 995.718 711.6C995.718 726.533 991.771 738.907 983.878 748.72C975.984 758.32 965.638 765.573 952.838 770.48C940.038 775.387 926.278 777.84 911.558 777.84ZM1026.27 774V560.24H1096.67C1114.16 560.24 1130.37 562.053 1145.31 565.68C1160.45 569.093 1173.57 574.96 1184.67 583.28C1195.97 591.387 1204.72 602.373 1210.91 616.24C1217.31 629.893 1220.51 646.853 1220.51 667.12C1220.51 687.6 1217.31 704.667 1210.91 718.32C1204.72 731.973 1195.97 742.96 1184.67 751.28C1173.57 759.387 1160.45 765.253 1145.31 768.88C1130.37 772.293 1114.16 774 1096.67 774H1026.27ZM1076.83 731.44H1097.63C1106.8 731.44 1115.55 730.693 1123.87 729.2C1132.4 727.707 1139.97 724.827 1146.59 720.56C1153.41 716.08 1158.75 709.573 1162.59 701.04C1166.43 692.507 1168.35 681.2 1168.35 667.12C1168.35 653.04 1166.43 641.733 1162.59 633.2C1158.75 624.453 1153.41 617.947 1146.59 613.68C1139.97 609.2 1132.4 606.213 1123.87 604.72C1115.55 603.013 1106.8 602.16 1097.63 602.16H1076.83V731.44Z" fill="white"/>
</g>
<defs>
<filter id="filter0_ii_681_118" x="464.576" y="200.6" width="1121.2" height="301.56" filterUnits="userSpaceOnUse" color-interpolation-filters="sRGB">
<feFlood flood-opacity="0" result="BackgroundImageFix"/>
<feBlend mode="normal" in="SourceGraphic" in2="BackgroundImageFix" result="shape"/>
<feColorMatrix in="SourceAlpha" type="matrix" values="0 0 0 0 0 0 0 0 0 0 0 0 0 0 0 0 0 0 127 0" result="hardAlpha"/>
<feOffset dy="4"/>
<feGaussianBlur stdDeviation="2"/>
<feComposite in2="hardAlpha" operator="arithmetic" k2="-1" k3="1"/>
<feColorMatrix type="matrix" values="0 0 0 0 0 0 0 0 0 0 0 0 0 0 0 0 0 0 0.25 0"/>
<feBlend mode="normal" in2="shape" result="effect1_innerShadow_681_118"/>
<feColorMatrix in="SourceAlpha" type="matrix" values="0 0 0 0 0 0 0 0 0 0 0 0 0 0 0 0 0 0 127 0" result="hardAlpha"/>
<feOffset dy="4"/>
<feGaussianBlur stdDeviation="2"/>
<feComposite in2="hardAlpha" operator="arithmetic" k2="-1" k3="1"/>
<feColorMatrix type="matrix" values="0 0 0 0 0 0 0 0 0 0 0 0 0 0 0 0 0 0 0.25 0"/>
<feBlend mode="normal" in2="effect1_innerShadow_681_118" result="effect2_innerShadow_681_118"/>
</filter>
<filter id="filter1_ii_681_118" x="828.997" y="556.4" width="391.511" height="225.44" filterUnits="userSpaceOnUse" color-interpolation-filters="sRGB">
<feFlood flood-opacity="0" result="BackgroundImageFix"/>
<feBlend mode="normal" in="SourceGraphic" in2="BackgroundImageFix" result="shape"/>
<feColorMatrix in="SourceAlpha" type="matrix" values="0 0 0 0 0 0 0 0 0 0 0 0 0 0 0 0 0 0 127 0" result="hardAlpha"/>
<feOffset dy="4"/>
<feGaussianBlur stdDeviation="2"/>
<feComposite in2="hardAlpha" operator="arithmetic" k2="-1" k3="1"/>
<feColorMatrix type="matrix" values="0 0 0 0 0 0 0 0 0 0 0 0 0 0 0 0 0 0 0.25 0"/>
<feBlend mode="normal" in2="shape" result="effect1_innerShadow_681_118"/>
<feColorMatrix in="SourceAlpha" type="matrix" values="0 0 0 0 0 0 0 0 0 0 0 0 0 0 0 0 0 0 127 0" result="hardAlpha"/>
<feOffset dy="4"/>
<feGaussianBlur stdDeviation="2"/>
<feComposite in2="hardAlpha" operator="arithmetic" k2="-1" k3="1"/>
<feColorMatrix type="matrix" values="0 0 0 0 0 0 0 0 0 0 0 0 0 0 0 0 0 0 0.25 0"/>
<feBlend mode="normal" in2="effect1_innerShadow_681_118" result="effect2_innerShadow_681_118"/>
</filter>
<linearGradient id="paint0_linear_681_118" x1="1890" y1="366" x2="12" y2="380" gradientUnits="userSpaceOnUse">
<stop stop-color="#B0D46E"/>
<stop offset="1" stop-color="#A8C572"/>
</linearGradient>
</defs>
</svg>
